<?xml version="1.0" encoding="utf-8"?>
<svg version="1.0" id="Layer_1" width="800px" height="800px" viewBox="0 0 64 64" enable-background="new 0 0 64 64" xmlns="http://www.w3.org/2000/svg">
  <g>
    <path d="M56,62H10c-2.209,0-4-1.791-4-4s1.791-4,4-4h46V62z" style="fill: none;"/>
    <g>
      <path d="M6,4v49.537C7.062,52.584,8.461,52,10,52h2V2H8C6.896,2,6,2.896,6,4z" style="fill: rgba(0, 0, 0, 0.6);"/>
      <path d="M56,2H14v50h42h2v-2V4C58,2.896,57.104,2,56,2z" style=""/>
    </g>
    <g>
      <path d="M60,52V4c0-2.211-1.789-4-4-4H8C5.789,0,4,1.789,4,4v54c0,3.313,2.687,6,6,6h49c0.553,0,1-0.447,1-1 s-0.447-1-1-1h-1v-8C59.104,54,60,53.104,60,52z M6,4c0-1.104,0.896-2,2-2h4v50h-2c-1.539,0-2.938,0.584-4,1.537V4z M56,62H10 c-2.209,0-4-1.791-4-4s1.791-4,4-4h46V62z M56,52H14V2h42c1.104,0,2,0.896,2,2v46v2H56z" style=""/>
      <path d="M 43 28 L 23 28 C 22.447 28 22 28.933 22 30.085 C 22 31.239 22.447 32.171 23 32.171 L 43 32.171 C 43.553 32.171 44 31.239 44 30.085 C 44 28.933 43.553 28 43 28 Z" style="fill: rgba(255, 255, 255, 0);"/>
      <path d="M 23.355 17.109 L 38.855 17.109 C 39.569 17.109 40.147 16.196 40.147 15.062 C 40.147 13.93 39.569 13.016 38.855 13.016 L 23.355 13.016 C 22.64 13.016 22.063 13.93 22.063 15.062 C 22.063 16.196 22.64 17.109 23.355 17.109 Z" style="fill: rgba(255, 255, 255, 0);"/>
    </g>
  </g>
</svg>