<svg version="1.0" width="800" height="800" viewBox="0 0 64 64" xmlns="http://www.w3.org/2000/svg"><g fill="none"><path d="M32.516 53.933a2.008 2.008 0 01-1.032 0L2 46.07v1.954l30 7.941 30-7.941V46.07l-29.484 7.863z"/><path d="M32 58a1.01 1.01 0 01-.256-.033L2 50.093v1.906l25.033 6.676 1.987.53a2.992 2.992 0 001.788 2.546l.676.181a2.008 2.008 0 001.032 0l.676-.181a2.992 2.992 0 001.788-2.546l1.987-.53L62 51.999v-1.906l-29.744 7.874A1.01 1.01 0 0132 58z"/></g><path fill="rgba(0,0,0,.8)" d="M2.001 2.001h-.003L2 44l29 7.733v-42L2.001 2z"/><path d="M33 9.733v42L62 44V2z"/><g><path d="M8.992 29.828l14.467 4.134a1 1 0 00.548-1.924L9.541 27.904a1 1 0 00-.549 1.924zM8.992 36.829l14.467 4.133a1 1 0 00.548-1.924L9.541 34.905a1 1 0 00-.549 1.924zM8.992 22.828l14.467 4.134a1 1 0 00.548-1.924L9.541 20.904a1 1 0 00-.549 1.924zM8.992 15.828l14.467 4.134a1 1 0 00.548-1.924L9.541 13.904a1 1 0 00-.549 1.924zM39.963 33.962c.092 0 .184-.013.275-.038l14.467-4.134c.531-.152.839-.706.688-1.236a1.007 1.007 0 00-1.236-.688L39.689 32a1.002 1.002 0 00-.688 1.236c.127.44.527.726.962.726zM54.459 34.905l-14.467 4.133a1.001 1.001 0 00.549 1.924l14.467-4.133c.531-.152.839-.705.688-1.236a1.009 1.009 0 00-1.237-.688zM40.266 27c.092 0 .184-.013.275-.038l14.467-4.134c.531-.152.839-.706.688-1.236a1.006 1.006 0 00-1.236-.688l-14.467 4.134A1 1 0 0040.266 27zM40.266 20c.092 0 .184-.013.275-.038l14.467-4.134c.531-.152.839-.706.688-1.236a1.007 1.007 0 00-1.236-.688l-14.467 4.134A1 1 0 0040.266 20z" fill="transparent"/><path d="M63.219.414a2.008 2.008 0 00-1.735-.347L32 7.93 2.516.067A2.01 2.01 0 00.781.414 2.003 2.003 0 000 2v49.999c0 .906.609 1.699 1.484 1.933l25.873 6.899C28.089 62.685 29.887 64 32 64s3.911-1.315 4.643-3.169l25.873-6.899A2.001 2.001 0 0064 51.999V2c0-.621-.289-1.207-.781-1.586zM2.001 2.001L31 9.733v42L2 44 1.998 2.001h.003zM62 51.999l-25.033 6.676-1.987.53a2.992 2.992 0 01-1.788 2.546l-.676.181a2.008 2.008 0 01-1.032 0l-.676-.181a2.992 2.992 0 01-1.788-2.546l-1.987-.53L2 51.999v-1.906l29.744 7.874a1.01 1.01 0 00.512 0L62 50.093v1.906zm0-3.975l-30 7.941-30-7.941V46.07l29.484 7.862a2.008 2.008 0 001.032.001L62 46.07v1.954zM62 44l-29 7.733v-42L62 2v42z" fill="rgba(0,0,0,.714)"/></g></svg>