<?xml version="1.0" encoding="utf-8"?>
<svg version="1.0" width="1024.000000pt" height="1024.000000pt" viewBox="0 0 1024.000000 1024.000000" preserveAspectRatio="xMidYMid meet" xmlns="http://www.w3.org/2000/svg">
  <g transform="translate(0.000000,1024.000000) scale(0.100000,-0.100000)" fill="#000000" stroke="none">
    <path d="M4925 8811 c-236 -62 -379 -213 -417 -437 -33 -197 89 -407 294 -504 141 -67 268 -83 445 -56 299 45 506 295 465 564 -33 213 -188 373 -418 432 -102 26 -270 26 -369 1z m376 -103 c227 -83 346 -252 319 -451 -11 -78 -44 -141 -109 -210 -102 -108 -224 -157 -387 -157 -120 0 -183 13 -272 55 -95 45 -173 119 -215 204 -30 61 -32 73 -32 166 0 89 3 106 28 157 59 120 194 218 348 253 93 21 236 14 320 -17z"/>
    <path d="M5000 8543 c-138 -24 -240 -107 -240 -196 0 -71 38 -117 98 -117 23 0 33 7 48 35 22 42 12 67 -31 75 -36 6 -42 23 -16 49 23 23 52 27 81 11 32 -17 220 -257 220 -281 0 -3 -12 -6 -27 -6 -16 -1 -37 -2 -48 -4 -18 -4 -20 2 -21 44 -1 58 -23 88 -49 67 -25 -20 -45 -65 -45 -99 0 -73 103 -132 188 -109 54 15 102 68 102 112 0 59 -29 105 -157 254 -35 40 -63 77 -63 82 0 5 10 10 23 12 18 2 22 9 22 38 0 32 -3 35 -30 36 -16 1 -41 0 -55 -3z"/>
    <path d="M5140 8511 c0 -29 4 -41 14 -41 25 0 28 -19 6 -47 -18 -23 -19 -29 -7 -47 28 -42 43 -42 83 -3 44 42 90 49 117 19 27 -30 22 -52 -13 -52 -23 0 -31 -5 -36 -26 -15 -58 37 -99 94 -75 57 24 80 116 47 182 -33 62 -127 109 -249 124 l-56 7 0 -41z"/>
    <path d="M4362 8714 c-26 -18 -30 -69 -8 -99 17 -24 69 -24 96 0 26 23 26 69 0 95 -24 24 -57 26 -88 4z"/>
    <path d="M5772 8707 c-30 -31 -28 -71 3 -95 64 -51 143 40 85 98 -27 27 -62 25 -88 -3z"/>
    <path d="M4036 8634 c-21 -20 -20 -41 1 -53 23 -12 53 4 53 29 0 29 -35 44 -54 24z"/>
    <path d="M6126 8634 c-9 -8 -16 -19 -16 -23 0 -16 40 -43 55 -38 20 8 20 63 -1 71 -21 8 -20 8 -38 -10z"/>
    <path d="M4225 8557 c-12 -45 24 -148 107 -309 45 -87 87 -163 95 -169 24 -21 16 108 -12 196 -31 94 -44 121 -107 212 -64 93 -75 102 -83 70z"/>
    <path d="M5928 8509 c-91 -121 -140 -237 -153 -362 -7 -65 2 -90 23 -64 6 7 49 89 95 183 86 172 113 255 98 295 -7 21 -13 16 -63 -52z"/>
    <path d="M3891 8419 c-99 -30 -166 -109 -166 -195 0 -62 23 -93 71 -97 l29 -2 -3 61 c-3 53 -1 64 23 92 77 92 227 45 285 -91 17 -38 23 -72 24 -127 1 -142 -62 -282 -187 -417 -58 -64 -66 -77 -61 -101 22 -94 48 -100 181 -39 110 51 308 118 422 144 59 14 127 18 309 19 192 1 236 3 248 16 19 18 9 44 -19 52 -48 14 -308 28 -400 22 -169 -11 -426 -79 -535 -143 -24 -13 -46 -23 -48 -20 -2 2 10 21 27 43 52 64 127 230 144 320 38 193 -41 390 -180 448 -49 21 -123 27 -164 15z"/>
    <path d="M6217 8419 c-148 -34 -248 -181 -247 -363 1 -106 62 -277 140 -390 28 -42 39 -72 23 -64 -162 81 -350 135 -525 149 -149 13 -419 -1 -445 -22 -18 -16 -16 -56 3 -63 8 -3 64 -2 122 3 125 11 336 0 438 -24 107 -24 278 -83 398 -136 60 -27 120 -49 132 -49 30 0 51 23 63 67 10 36 9 38 -47 97 -178 187 -256 431 -183 574 65 127 192 166 278 86 35 -33 36 -35 30 -94 l-5 -60 34 0 c28 0 38 6 54 33 38 61 20 138 -45 196 -63 55 -143 77 -218 60z"/>
    <path d="M3450 8336 c0 -8 5 -18 10 -21 6 -3 10 3 10 14 0 12 -4 21 -10 21 -5 0 -10 -6 -10 -14z"/>
    <path d="M4317 8003 c-4 -7 36 -69 101 -152 23 -30 42 -21 42 20 0 42 -24 95 -52 113 -30 19 -84 31 -91 19z"/>
    <path d="M5855 8002 c-53 -12 -89 -58 -101 -131 -6 -37 -4 -41 14 -41 13 0 33 19 58 53 20 28 48 66 61 83 21 29 22 32 6 36 -10 2 -27 2 -38 0z"/>
    <path d="M5002 7467 l-102 -102 71 -78 c88 -96 120 -120 147 -110 31 12 173 145 183 172 9 22 0 34 -88 123 -54 54 -100 98 -103 98 -3 0 -51 -46 -108 -103z m208 -116 c-5 -9 -29 -36 -55 -61 l-47 -45 -53 60 -53 59 27 31 c15 16 38 42 52 57 l24 27 57 -56 c43 -43 55 -60 48 -72z"/>
    <path d="M4557 7496 c-43 -16 -117 -64 -117 -77 0 -13 141 -10 257 5 142 19 171 44 81 71 -63 18 -170 19 -221 1z"/>
    <path d="M5439 7501 c-14 -5 -35 -14 -48 -20 -23 -13 -23 -13 -3 -27 48 -33 351 -60 368 -32 11 17 -43 56 -100 73 -52 16 -173 19 -217 6z"/>
    <path d="M4530 7324 c-14 -3 -40 -7 -57 -10 -77 -12 -8 -55 125 -78 194 -33 241 -23 157 36 -56 38 -158 62 -225 52z"/>
    <path d="M5563 7320 c-69 -14 -163 -74 -163 -103 0 -13 123 0 240 25 86 19 130 38 130 59 0 17 -148 31 -207 19z"/>
    <path d="M4235 7158 c-3 -7 -23 -94 -44 -193 -22 -99 -42 -192 -46 -207 l-7 -28 108 0 c310 0 520 -85 687 -277 19 -22 14 -53 -8 -53 -8 0 -40 23 -72 51 -180 158 -336 209 -642 209 l-144 0 7 52 c4 28 16 97 27 151 11 55 18 106 15 113 -7 17 -50 18 -63 2 -8 -11 -95 -479 -90 -484 1 -1 70 5 152 13 416 42 673 -59 889 -351 32 -43 60 -75 63 -72 3 3 5 175 4 382 -2 425 3 397 -86 492 -108 117 -271 175 -565 202 -149 13 -180 13 -185 -2z m265 -224 c41 -9 108 -30 149 -47 87 -36 224 -140 229 -175 5 -36 -23 -27 -91 30 -105 87 -228 134 -410 157 -43 5 -81 12 -84 14 -3 3 -2 15 2 27 7 21 11 22 69 16 33 -4 95 -14 136 -22z"/>
    <path d="M5775 7159 c-281 -27 -444 -91 -556 -217 -80 -90 -79 -81 -79 -489 0 -216 4 -363 9 -363 5 0 19 12 31 28 117 152 154 192 226 243 140 100 220 131 394 150 92 11 234 6 425 -14 24 -2 25 -10 -13 183 -17 85 -36 188 -43 227 -13 76 -26 92 -69 78 -24 -8 -25 1 5 -170 13 -77 20 -143 17 -146 -4 -4 -88 -9 -187 -12 -115 -4 -204 -11 -245 -22 -104 -26 -217 -86 -309 -165 -82 -71 -111 -82 -111 -41 0 26 124 139 209 189 134 80 263 112 456 112 69 0 125 2 125 5 0 9 -59 313 -73 375 l-12 55 -55 1 c-30 1 -95 -2 -145 -7z m123 -226 c3 -19 -3 -22 -45 -28 -185 -26 -327 -82 -433 -169 -60 -50 -80 -57 -80 -27 0 25 88 103 168 148 96 54 272 104 352 100 28 -2 36 -7 38 -24z"/>
    <path d="M3916 6882 c-4 -7 -110 -498 -123 -569 -7 -41 -14 -40 202 -13 348 44 528 36 660 -29 80 -40 185 -126 185 -152 0 -36 -28 -32 -77 11 -148 130 -286 152 -713 110 -252 -25 -340 -26 -340 -5 0 8 14 71 31 141 46 193 30 180 -30 -23 -42 -145 -51 -186 -42 -197 13 -16 95 -16 536 -1 157 5 239 4 284 -5 127 -23 256 -102 315 -191 41 -60 67 -89 82 -89 7 0 25 14 41 30 15 17 44 40 63 52 19 12 37 23 39 24 6 5 -59 113 -101 167 -119 153 -216 221 -393 274 -49 15 -94 18 -240 17 -99 0 -227 -5 -285 -11 -58 -6 -108 -8 -112 -4 -8 7 8 114 48 314 14 70 23 134 20 142 -6 16 -41 21 -50 7z"/>
    <path d="M6244 6876 c-4 -9 1 -56 9 -104 53 -299 61 -351 55 -357 -3 -4 -84 1 -180 11 -384 37 -560 -3 -746 -170 -53 -49 -192 -245 -192 -272 0 -7 5 -14 10 -14 6 0 33 -20 59 -45 26 -25 55 -45 64 -45 9 0 29 14 44 32 126 146 206 204 324 233 64 16 97 16 367 6 355 -13 472 -14 491 -2 13 8 11 21 -11 88 -15 43 -41 125 -58 183 -39 128 -49 154 -55 148 -3 -2 15 -78 40 -167 25 -89 45 -167 45 -172 0 -15 -173 -10 -375 11 -400 42 -535 19 -696 -118 -23 -20 -46 -32 -54 -28 -72 27 128 180 290 221 82 21 236 19 445 -5 96 -12 206 -24 243 -27 l68 -6 -6 29 c-4 16 -14 52 -21 79 -8 28 -28 118 -45 200 -52 263 -63 300 -87 303 -13 2 -25 -3 -28 -12z"/>
    <path d="M3670 6081 c-59 -5 -66 -9 -78 -34 -27 -55 -18 -57 272 -57 154 0 277 -4 300 -11 21 -6 57 -28 80 -49 l41 -37 242 -6 243 -5 -12 22 c-21 39 -116 122 -175 151 l-58 30 -395 1 c-217 0 -424 -2 -460 -5z"/>
    <path d="M5694 6081 c-44 -11 -123 -57 -164 -95 -40 -36 -80 -85 -80 -96 0 -4 106 -6 235 -5 l234 3 44 36 c79 64 89 66 377 67 286 1 295 3 281 56 l-7 28 -140 5 c-215 9 -745 9 -780 1z"/>
    <path d="M3324 6005 c-23 -35 3 -95 42 -95 22 0 54 37 54 63 0 53 -67 76 -96 32z"/>
    <path d="M6817 6012 c-33 -36 -14 -102 28 -102 29 0 65 32 65 58 0 22 -40 62 -62 62 -8 0 -22 -8 -31 -18z"/>
    <path d="M1885 6000 l-250 -5 -3 -33 c-6 -65 -40 -62 624 -62 l604 0 12 24 c6 14 8 36 4 50 l-6 26 -368 2 c-202 2 -479 1 -617 -2z"/>
    <path d="M7715 6000 l-359 -5 -9 -32 c-20 -67 -61 -63 611 -63 459 0 611 3 620 12 7 7 12 27 12 45 0 26 -5 34 -22 37 -38 9 -470 11 -853 6z"/>
    <path d="M2945 5990 c-9 -14 5 -73 19 -82 6 -4 71 -8 143 -8 l133 0 6 25 c3 14 3 36 0 50 l-6 25 -145 0 c-87 0 -146 -4 -150 -10z"/>
    <path d="M6976 5978 c-3 -13 -6 -35 -6 -51 l0 -28 147 3 147 3 8 34 c16 60 13 61 -146 61 -141 0 -144 0 -150 -22z"/>
    <path d="M5130 5960 c0 -5 7 -10 15 -10 8 0 15 5 15 10 0 6 -7 10 -15 10 -8 0 -15 -4 -15 -10z"/>
    <path d="M3524 5915 c-4 -8 -1 -22 6 -30 10 -12 50 -15 236 -15 209 0 224 1 224 18 0 39 -16 42 -242 42 -186 0 -219 -2 -224 -15z"/>
    <path d="M4050 5916 c0 -25 42 -46 93 -46 45 0 48 2 36 17 -31 36 -129 58 -129 29z"/>
    <path d="M6060 5908 c-52 -35 -48 -44 20 -44 47 1 64 6 81 23 12 11 18 26 15 32 -12 19 -81 12 -116 -11z"/>
    <path d="M6248 5905 c-6 -14 -9 -28 -6 -31 10 -9 422 -12 441 -2 9 5 17 20 17 33 l0 25 -220 0 -220 0 -12 -25z"/>
    <path d="M5071 5899 c-35 -7 -82 -37 -89 -57 -2 -6 11 -21 30 -32 27 -18 46 -21 110 -18 64 3 81 7 99 25 19 19 20 24 9 38 -29 34 -105 56 -159 44z"/>
    <path d="M1526 5601 c-3 -5 16 -25 43 -44 l49 -36 8 -78 c4 -43 4 -311 0 -597 -6 -482 -8 -522 -26 -562 -11 -26 -29 -49 -44 -56 -32 -14 -33 -34 -3 -44 37 -12 316 -5 351 10 l31 13 -41 21 c-29 15 -45 31 -53 53 -7 20 -11 127 -11 290 l0 259 105 1 c58 0 119 1 135 1 17 0 48 -1 70 -1 l40 -1 0 -250 c0 -283 -6 -313 -67 -351 -57 -35 -31 -44 150 -47 154 -3 217 4 217 27 0 5 -14 14 -30 21 -62 26 -61 10 -60 678 l0 607 45 40 c26 22 43 44 39 48 -11 11 -394 9 -394 -3 0 -5 20 -23 44 -39 24 -17 46 -38 50 -46 3 -9 6 -120 6 -246 l0 -229 -169 0 c-109 0 -172 4 -176 11 -4 5 -6 111 -6 235 1 246 2 249 60 285 17 10 31 23 31 29 0 13 -386 14 -394 1z"/>
    <path d="M2774 5600 c-3 -2 15 -23 40 -46 39 -35 45 -46 41 -70 -3 -16 -18 -111 -35 -211 -38 -232 -88 -474 -102 -490 -5 -7 -18 -15 -29 -18 -10 -4 -19 -11 -19 -17 0 -6 3 -9 6 -5 10 10 107 -24 150 -53 22 -16 56 -46 74 -67 32 -36 37 -38 99 -40 l66 -1 17 -114 c27 -184 24 -209 -23 -234 -33 -17 -38 -40 -10 -49 10 -3 83 -7 162 -8 122 -2 148 1 168 15 l24 17 -35 21 c-40 23 -54 50 -67 125 -57 328 -57 324 -36 339 20 14 20 15 -3 39 -13 14 -30 47 -38 73 -22 73 -114 566 -121 648 l-6 72 38 32 c20 18 34 36 31 40 -8 7 -385 10 -392 2z m215 -652 c12 -38 31 -143 31 -170 0 -15 -8 -18 -50 -18 -58 0 -58 -1 -35 112 26 122 35 135 54 76z"/>
    <path d="M3477 5597 c-8 -5 3 -21 33 -46 l45 -39 -3 -594 c-2 -365 -7 -606 -13 -626 -6 -18 -26 -44 -45 -58 -59 -46 -36 -54 146 -54 129 0 160 3 170 15 15 18 15 17 -27 39 -57 29 -61 56 -66 474 -3 206 -1 370 3 365 4 -4 49 -143 98 -308 50 -165 105 -342 122 -394 16 -52 30 -99 30 -105 0 -6 -14 -23 -32 -38 l-33 -27 30 -12 c44 -18 326 -18 348 0 24 19 21 27 -12 41 -62 25 -61 18 -61 668 0 335 4 601 9 615 5 13 26 34 46 46 66 39 44 45 -153 46 -100 0 -182 -2 -182 -5 0 -3 21 -24 47 -46 l48 -42 3 -356 c2 -210 -1 -356 -6 -356 -13 0 -105 292 -198 624 -24 88 -47 163 -51 167 -11 10 -282 16 -296 6z"/>
    <path d="M4375 5600 c-4 -6 -5 -12 -4 -14 2 -1 20 -13 39 -26 19 -13 41 -30 48 -38 9 -12 12 -149 12 -606 0 -550 -2 -594 -19 -631 -10 -22 -30 -46 -45 -54 -41 -23 -29 -45 29 -53 76 -10 229 -9 335 2 154 16 226 64 283 187 22 47 22 54 22 503 0 519 1 513 -84 603 -84 90 -154 112 -391 122 -79 3 -161 8 -181 11 -23 4 -39 2 -44 -6z m412 -179 c26 -12 52 -35 70 -62 l28 -43 3 -420 c3 -469 1 -482 -63 -531 -34 -27 -139 -55 -152 -41 -4 4 -9 257 -11 562 l-3 554 43 0 c24 0 62 -9 85 -19z"/>
    <path d="M7757 5603 c-4 -4 15 -27 43 -53 l50 -46 0 -592 c0 -651 0 -646 -60 -680 -35 -20 -37 -28 -9 -43 27 -14 290 -13 335 1 35 12 46 30 19 30 -8 0 -29 13 -46 28 -27 24 -32 37 -38 96 -4 38 -4 107 -1 155 6 76 11 94 46 153 21 37 42 67 45 68 5 0 18 -26 68 -145 16 -38 47 -108 68 -155 61 -130 61 -135 13 -180 -22 -20 -40 -40 -40 -43 0 -10 57 -16 192 -20 195 -7 267 13 190 52 -51 26 -73 58 -132 189 -26 59 -76 172 -112 252 -36 80 -80 181 -98 226 l-33 81 70 114 c175 287 261 417 305 460 26 25 45 49 41 52 -10 11 -391 8 -398 -2 -3 -5 15 -26 40 -46 l44 -37 -14 -35 c-8 -20 -37 -72 -64 -117 -27 -44 -83 -141 -126 -213 -43 -73 -84 -133 -92 -133 -10 0 -13 47 -13 242 l0 241 45 44 c25 24 43 48 40 53 -7 11 -368 14 -378 3z"/>
    <path d="M5250 5594 c0 -5 18 -25 40 -45 l40 -37 -2 -620 -3 -620 -24 -26 c-14 -14 -31 -26 -38 -26 -8 0 -13 -8 -11 -17 3 -15 19 -19 98 -24 52 -3 163 -5 245 -4 133 1 156 4 203 25 64 28 115 84 139 154 25 71 25 318 0 391 -18 54 -71 116 -121 142 l-31 16 25 15 c59 38 106 98 123 158 22 77 22 223 1 293 -30 101 -136 185 -264 209 -70 14 -420 26 -420 16z m398 -169 c88 -27 131 -112 119 -241 -11 -116 -60 -166 -169 -172 l-68 -4 0 209 c0 115 3 213 7 216 11 11 56 8 111 -8z m36 -610 c25 -12 43 -32 61 -68 23 -46 25 -62 25 -173 0 -68 -5 -135 -11 -151 -25 -67 -100 -108 -184 -101 l-40 3 -3 245 c-1 134 0 251 3 259 7 18 99 10 149 -14z"/>
    <path d="M6382 5561 c-101 -35 -172 -117 -192 -220 -6 -31 -10 -235 -10 -486 0 -403 1 -437 20 -496 24 -79 66 -132 134 -166 44 -24 63 -27 141 -28 106 0 162 22 225 91 65 70 65 73 65 619 l0 490 -28 57 c-34 70 -88 114 -168 139 -75 24 -119 24 -187 0z m168 -159 c21 -22 30 -42 35 -83 3 -30 5 -250 3 -489 -3 -487 -2 -476 -75 -506 -46 -20 -86 -10 -118 28 l-25 30 0 484 c0 412 2 489 15 514 20 38 41 49 93 50 35 0 49 -6 72 -28z"/>
    <path d="M7223 5571 c-82 -21 -159 -88 -196 -171 -19 -43 -20 -67 -21 -535 l-1 -490 28 -57 c54 -110 127 -152 262 -152 104 0 159 20 213 75 81 82 84 103 83 637 0 504 -2 525 -65 598 -51 60 -125 96 -205 100 -36 2 -80 -1 -98 -5z m152 -165 c13 -13 26 -39 30 -57 3 -19 5 -245 3 -502 l-3 -469 -33 -29 c-43 -38 -107 -41 -149 -5 l-28 24 0 505 0 505 24 26 c20 22 33 26 78 26 43 0 59 -5 78 -24z"/>
    <path d="M1333 5120 c-23 -5 -55 -16 -71 -24 -37 -19 -90 -79 -98 -112 -10 -40 2 -99 27 -133 43 -58 164 -102 241 -87 35 7 87 41 77 51 -4 3 -34 10 -69 16 -76 12 -129 38 -164 79 -30 36 -30 40 -14 74 14 33 82 66 154 75 53 7 107 41 92 57 -11 11 -130 14 -175 4z"/>
    <path d="M8701 5121 c-19 -12 -7 -39 21 -50 13 -5 59 -17 103 -26 126 -28 161 -77 101 -143 -31 -35 -85 -59 -160 -72 -36 -7 -66 -16 -66 -20 0 -4 12 -16 28 -26 37 -26 153 -26 202 0 178 93 154 282 -42 333 -59 15 -166 17 -187 4z"/>
    <path d="M1440 4976 c-6 -8 -10 -25 -8 -38 2 -17 10 -23 28 -23 20 0 26 6 28 29 5 40 -25 59 -48 32z"/>
    <path d="M8730 4969 c-19 -34 -9 -64 23 -67 21 -3 29 2 36 20 19 52 -34 95 -59 47z"/>
    <path d="M8536 4964 c-4 -10 1 -25 10 -35 31 -35 61 -18 50 27 -7 28 -50 34 -60 8z"/>
    <path d="M2700 4656 c0 -27 -62 -361 -69 -375 -6 -10 -25 -31 -43 -46 -29 -25 -31 -28 -15 -40 21 -15 216 -27 280 -16 51 9 83 29 58 38 -7 3 -27 18 -44 33 l-30 27 14 124 c8 68 13 135 12 148 -3 30 -37 67 -85 92 -34 17 -78 26 -78 15z"/>
    <path d="M4100 3845 c-7 -8 -10 -25 -6 -39 12 -48 76 -41 76 8 0 42 -45 62 -70 31z"/>
    <path d="M6068 3849 c-22 -12 -23 -52 -4 -68 33 -28 80 34 49 64 -17 17 -22 18 -45 4z"/>
    <path d="M1660 3830 c-21 -6 -25 -11 -22 -41 1 -18 7 -38 11 -42 5 -5 235 -8 511 -8 456 1 505 2 521 17 21 19 26 74 7 74 -114 5 -1010 4 -1028 0z"/>
    <path d="M4399 3819 c-26 -26 -21 -59 13 -78 24 -14 28 -14 47 3 26 24 27 58 3 79 -24 22 -38 21 -63 -4z"/>
    <path d="M5768 3829 c-32 -18 -41 -48 -23 -75 17 -26 41 -30 66 -11 28 21 32 54 10 76 -24 24 -29 25 -53 10z"/>
    <path d="M6408 3832 l-48 -3 0 -38 c0 -21 6 -43 13 -49 12 -10 870 -8 886 3 14 8 30 61 22 73 -6 10 -749 22 -873 14z"/>
    <path d="M7377 3828 c-22 -12 -22 -53 1 -75 16 -17 58 -18 594 -18 634 0 603 -3 610 60 l3 30 -135 6 c-210 10 -1054 8 -1073 -3z"/>
    <path d="M2775 3820 c-8 -13 3 -68 15 -75 18 -11 1041 -11 1050 0 5 6 11 27 12 46 l3 34 -537 3 c-361 1 -539 -1 -543 -8z"/>
    <path d="M 4608.063 3800.696 C 4629.063 3774.696 4719.063 3728.696 4811.063 3696.696 C 4889.063 3669.696 4898.063 3667.696 4898.063 3683.696 C 4898.063 3711.696 4838.063 3776.696 4794.063 3796.696 C 4740.063 3821.696 4588.063 3824.696 4608.063 3800.696 Z"/>
    <path d="M 5416.295 3805.712 C 5402.295 3798.712 5382.295 3786.712 5372.295 3778.712 C 5351.295 3761.712 5297.295 3688.712 5297.295 3678.712 C 5297.295 3660.712 5449.295 3712.712 5529.295 3757.712 C 5623.295 3810.712 5623.295 3818.712 5526.295 3817.712 C 5480.295 3817.712 5430.295 3811.712 5416.295 3805.712 Z"/>
    <path d="M 5073.904 3828.789 C 5038.904 3821.789 4991.904 3791.789 4984.904 3771.789 C 4982.904 3765.789 4995.904 3750.789 5014.904 3739.789 C 5041.904 3721.789 5060.904 3718.789 5124.904 3721.789 C 5188.904 3724.789 5205.904 3728.789 5223.904 3746.789 C 5242.904 3765.789 5243.904 3770.789 5232.904 3784.789 C 5203.904 3818.789 5127.904 3840.789 5073.904 3828.789 Z"/>
  </g>
</svg>