<?xml version="1.0" encoding="utf-8"?>
<svg version="1.0" width="1024" height="400" viewBox="130 260 760 400" preserveAspectRatio="xMidYMid meet" xmlns="http://www.w3.org/2000/svg">
  <g transform="translate(0.000000,1024.000000) scale(0.100000,-0.100000)" fill="#000000" stroke="none">
    <path d="M 5002 7287 L 4900 7185 L 4971 7107 C 5059 7011 5091 6987 5118 6997 C 5149 7009 5291 7142 5301 7169 C 5310 7191 5301 7203 5213 7292 C 5159 7346 5113 7390 5110 7390 C 5107 7390 5059 7344 5002 7287 Z M 5210 7171 C 5205 7162 5181 7135 5155 7110 L 5108 7065 L 5055 7125 L 5002 7184 L 5029 7215 C 5044 7231 5067 7257 5081 7272 L 5105 7299 L 5162 7243 C 5205 7200 5217 7183 5210 7171 Z" style="fill: rgb(33, 33, 33);"/>
    <path d="M 4557 7316 C 4514 7300 4440 7252 4440 7239 C 4440 7226 4581 7229 4697 7244 C 4839 7263 4868 7288 4778 7315 C 4715 7333 4608 7334 4557 7316 Z" style="fill: rgb(33, 33, 33);"/>
    <path d="M 5439 7321 C 5425 7316 5404 7307 5391 7301 C 5368 7288 5368 7288 5388 7274 C 5436 7241 5739 7214 5756 7242 C 5767 7259 5713 7298 5656 7315 C 5604 7331 5483 7334 5439 7321 Z" style="fill: rgb(33, 33, 33);"/>
    <path d="M 4530 7144 C 4516 7141 4490 7137 4473 7134 C 4396 7122 4465 7079 4598 7056 C 4792 7023 4839 7033 4755 7092 C 4699 7130 4597 7154 4530 7144 Z" style="fill: rgb(33, 33, 33);"/>
    <path d="M 5563 7140 C 5494 7126 5400 7066 5400 7037 C 5400 7024 5523 7037 5640 7062 C 5726 7081 5770 7100 5770 7121 C 5770 7138 5622 7152 5563 7140 Z" style="fill: rgb(33, 33, 33);"/>
    <path d="M 4235 6978 C 4232 6971 4212 6884 4191 6785 C 4169 6686 4149 6593 4145 6578 L 4138 6550 L 4246 6550 C 4556 6550 4766 6465 4933 6273 C 4952 6251 4947 6220 4925 6220 C 4917 6220 4885 6243 4853 6271 C 4673 6429 4517 6480 4211 6480 L 4067 6480 L 4074 6532 C 4078 6560 4090 6629 4101 6683 C 4112 6738 4119 6789 4116 6796 C 4109 6813 4066 6814 4053 6798 C 4045 6787 3958 6319 3963 6314 C 3964 6313 4033 6319 4115 6327 C 4531 6369 4788 6268 5004 5976 C 5036 5933 5064 5901 5067 5904 C 5070 5907 5072 6079 5071 6286 C 5069 6711 5074 6683 4985 6778 C 4877 6895 4714 6953 4420 6980 C 4271 6993 4240 6993 4235 6978 Z M 4500 6754 C 4541 6745 4608 6724 4649 6707 C 4736 6671 4873 6567 4878 6532 C 4883 6496 4855 6505 4787 6562 C 4682 6649 4559 6696 4377 6719 C 4334 6724 4296 6731 4293 6733 C 4290 6736 4291 6748 4295 6760 C 4302 6781 4306 6782 4364 6776 C 4397 6772 4459 6762 4500 6754 Z" style="fill: rgb(33, 33, 33);"/>
    <path d="M 5775 6979 C 5494 6952 5331 6888 5219 6762 C 5139 6672 5140 6681 5140 6273 C 5140 6057 5144 5910 5149 5910 C 5154 5910 5168 5922 5180 5938 C 5297 6090 5334 6130 5406 6181 C 5546 6281 5626 6312 5800 6331 C 5892 6342 6034 6337 6225 6317 C 6249 6315 6250 6307 6212 6500 C 6195 6585 6176 6688 6169 6727 C 6156 6803 6143 6819 6100 6805 C 6076 6797 6075 6806 6105 6635 C 6118 6558 6125 6492 6122 6489 C 6118 6485 6034 6480 5935 6477 C 5820 6473 5731 6466 5690 6455 C 5586 6429 5473 6369 5381 6290 C 5299 6219 5270 6208 5270 6249 C 5270 6275 5394 6388 5479 6438 C 5613 6518 5742 6550 5935 6550 C 6004 6550 6060 6552 6060 6555 C 6060 6564 6001 6868 5987 6930 L 5975 6985 L 5920 6986 C 5890 6987 5825 6984 5775 6979 Z M 5898 6753 C 5901 6734 5895 6731 5853 6725 C 5668 6699 5526 6643 5420 6556 C 5360 6506 5340 6499 5340 6529 C 5340 6554 5428 6632 5508 6677 C 5604 6731 5780 6781 5860 6777 C 5888 6775 5896 6770 5898 6753 Z" style="fill: rgb(33, 33, 33);"/>
    <path d="M 3916 6702 C 3912 6695 3806 6204 3793 6133 C 3786 6092 3779 6093 3995 6120 C 4343 6164 4523 6156 4655 6091 C 4735 6051 4840 5965 4840 5939 C 4840 5903 4812 5907 4763 5950 C 4615 6080 4477 6102 4050 6060 C 3798 6035 3710 6034 3710 6055 C 3710 6063 3724 6126 3741 6196 C 3787 6389 3771 6376 3711 6173 C 3669 6028 3660 5987 3669 5976 C 3682 5960 3764 5960 4205 5975 C 4362 5980 4444 5979 4489 5970 C 4616 5947 4745 5868 4804 5779 C 4845 5719 4871 5690 4886 5690 C 4893 5690 4911 5704 4927 5720 C 4942 5737 4971 5760 4990 5772 C 5009 5784 5027 5795 5029 5796 C 5035 5801 4970 5909 4928 5963 C 4809 6116 4712 6184 4535 6237 C 4486 6252 4441 6255 4295 6254 C 4196 6254 4068 6249 4010 6243 C 3952 6237 3902 6235 3898 6239 C 3890 6246 3906 6353 3946 6553 C 3960 6623 3969 6687 3966 6695 C 3960 6711 3925 6716 3916 6702 Z" style="fill: rgb(33, 33, 33);"/>
    <path d="M 6244 6696 C 6240 6687 6245 6640 6253 6592 C 6306 6293 6314 6241 6308 6235 C 6305 6231 6224 6236 6128 6246 C 5744 6283 5568 6243 5382 6076 C 5329 6027 5190 5831 5190 5804 C 5190 5797 5195 5790 5200 5790 C 5206 5790 5233 5770 5259 5745 C 5285 5720 5314 5700 5323 5700 C 5332 5700 5352 5714 5367 5732 C 5493 5878 5573 5936 5691 5965 C 5755 5981 5788 5981 6058 5971 C 6413 5958 6530 5957 6549 5969 C 6562 5977 6560 5990 6538 6057 C 6523 6100 6497 6182 6480 6240 C 6441 6368 6431 6394 6425 6388 C 6422 6386 6440 6310 6465 6221 C 6490 6132 6510 6054 6510 6049 C 6510 6034 6337 6039 6135 6060 C 5735 6102 5600 6079 5439 5942 C 5416 5922 5393 5910 5385 5914 C 5313 5941 5513 6094 5675 6135 C 5757 6156 5911 6154 6120 6130 C 6216 6118 6326 6106 6363 6103 L 6431 6097 L 6425 6126 C 6421 6142 6411 6178 6404 6205 C 6396 6233 6376 6323 6359 6405 C 6307 6668 6296 6705 6272 6708 C 6259 6710 6247 6705 6244 6696 Z" style="fill: rgb(33, 33, 33);"/>
    <path d="M 3670 5901 C 3611 5896 3604 5892 3592 5867 C 3565 5812 3574 5810 3864 5810 C 4018 5810 4141 5806 4164 5799 C 4185 5793 4221 5771 4244 5750 L 4285 5713 L 4527 5707 L 4770 5702 L 4758 5724 C 4737 5763 4642 5846 4583 5875 L 4525 5905 L 4130 5906 C 3913 5906 3706 5904 3670 5901 Z" style="fill: rgb(33, 33, 33);"/>
    <path d="M 5694 5901 C 5650 5890 5571 5844 5530 5806 C 5490 5770 5450 5721 5450 5710 C 5450 5706 5556 5704 5685 5705 L 5919 5708 L 5963 5744 C 6042 5808 6052 5810 6340 5811 C 6626 5812 6635 5814 6621 5867 L 6614 5895 L 6474 5900 C 6259 5909 5729 5909 5694 5901 Z" style="fill: rgb(33, 33, 33);"/>
    <path d="M 3524 5735 C 3520 5727 3523 5713 3530 5705 C 3540 5693 3580 5690 3766 5690 C 3975 5690 3990 5691 3990 5708 C 3990 5747 3974 5750 3748 5750 C 3562 5750 3529 5748 3524 5735 Z" style="fill: rgb(33, 33, 33);"/>
    <path d="M 4050 5736 C 4050 5711 4092 5690 4143 5690 C 4188 5690 4191 5692 4179 5707 C 4148 5743 4050 5765 4050 5736 Z" style="fill: rgb(33, 33, 33);"/>
    <path d="M 6060 5728 C 6008 5693 6012 5684 6080 5684 C 6127 5685 6144 5690 6161 5707 C 6173 5718 6179 5733 6176 5739 C 6164 5758 6095 5751 6060 5728 Z" style="fill: rgb(33, 33, 33);"/>
    <path d="M 6248 5725 C 6242 5711 6239 5697 6242 5694 C 6252 5685 6664 5682 6683 5692 C 6692 5697 6700 5712 6700 5725 L 6700 5750 L 6480 5750 L 6260 5750 L 6248 5725 Z" style="fill: rgb(33, 33, 33);"/>
    <path d="M 5071 5719 C 5036 5712 4989 5682 4982 5662 C 4980 5656 4993 5641 5012 5630 C 5039 5612 5058 5609 5122 5612 C 5186 5615 5203 5619 5221 5637 C 5240 5656 5241 5661 5230 5675 C 5201 5709 5125 5731 5071 5719 Z" style="fill: rgb(33, 33, 33);"/>
    <path d="M1526 5601 c-3 -5 16 -25 43 -44 l49 -36 8 -78 c4 -43 4 -311 0 -597 -6 -482 -8 -522 -26 -562 -11 -26 -29 -49 -44 -56 -32 -14 -33 -34 -3 -44 37 -12 316 -5 351 10 l31 13 -41 21 c-29 15 -45 31 -53 53 -7 20 -11 127 -11 290 l0 259 105 1 c58 0 119 1 135 1 17 0 48 -1 70 -1 l40 -1 0 -250 c0 -283 -6 -313 -67 -351 -57 -35 -31 -44 150 -47 154 -3 217 4 217 27 0 5 -14 14 -30 21 -62 26 -61 10 -60 678 l0 607 45 40 c26 22 43 44 39 48 -11 11 -394 9 -394 -3 0 -5 20 -23 44 -39 24 -17 46 -38 50 -46 3 -9 6 -120 6 -246 l0 -229 -169 0 c-109 0 -172 4 -176 11 -4 5 -6 111 -6 235 1 246 2 249 60 285 17 10 31 23 31 29 0 13 -386 14 -394 1z" style="fill: rgb(33, 33, 33);"/>
    <path d="M2774 5600 c-3 -2 15 -23 40 -46 39 -35 45 -46 41 -70 -3 -16 -18 -111 -35 -211 -38 -232 -88 -474 -102 -490 -5 -7 -18 -15 -29 -18 -10 -4 -19 -11 -19 -17 0 -6 3 -9 6 -5 10 10 107 -24 150 -53 22 -16 56 -46 74 -67 32 -36 37 -38 99 -40 l66 -1 17 -114 c27 -184 24 -209 -23 -234 -33 -17 -38 -40 -10 -49 10 -3 83 -7 162 -8 122 -2 148 1 168 15 l24 17 -35 21 c-40 23 -54 50 -67 125 -57 328 -57 324 -36 339 20 14 20 15 -3 39 -13 14 -30 47 -38 73 -22 73 -114 566 -121 648 l-6 72 38 32 c20 18 34 36 31 40 -8 7 -385 10 -392 2z m215 -652 c12 -38 31 -143 31 -170 0 -15 -8 -18 -50 -18 -58 0 -58 -1 -35 112 26 122 35 135 54 76z" style="fill: rgb(33, 33, 33);"/>
    <path d="M3477 5597 c-8 -5 3 -21 33 -46 l45 -39 -3 -594 c-2 -365 -7 -606 -13 -626 -6 -18 -26 -44 -45 -58 -59 -46 -36 -54 146 -54 129 0 160 3 170 15 15 18 15 17 -27 39 -57 29 -61 56 -66 474 -3 206 -1 370 3 365 4 -4 49 -143 98 -308 50 -165 105 -342 122 -394 16 -52 30 -99 30 -105 0 -6 -14 -23 -32 -38 l-33 -27 30 -12 c44 -18 326 -18 348 0 24 19 21 27 -12 41 -62 25 -61 18 -61 668 0 335 4 601 9 615 5 13 26 34 46 46 66 39 44 45 -153 46 -100 0 -182 -2 -182 -5 0 -3 21 -24 47 -46 l48 -42 3 -356 c2 -210 -1 -356 -6 -356 -13 0 -105 292 -198 624 -24 88 -47 163 -51 167 -11 10 -282 16 -296 6z" style="fill: rgb(33, 33, 33);"/>
    <path d="M4375 5600 c-4 -6 -5 -12 -4 -14 2 -1 20 -13 39 -26 19 -13 41 -30 48 -38 9 -12 12 -149 12 -606 0 -550 -2 -594 -19 -631 -10 -22 -30 -46 -45 -54 -41 -23 -29 -45 29 -53 76 -10 229 -9 335 2 154 16 226 64 283 187 22 47 22 54 22 503 0 519 1 513 -84 603 -84 90 -154 112 -391 122 -79 3 -161 8 -181 11 -23 4 -39 2 -44 -6z m412 -179 c26 -12 52 -35 70 -62 l28 -43 3 -420 c3 -469 1 -482 -63 -531 -34 -27 -139 -55 -152 -41 -4 4 -9 257 -11 562 l-3 554 43 0 c24 0 62 -9 85 -19z" style="fill: rgb(33, 33, 33);"/>
    <path d="M7757 5603 c-4 -4 15 -27 43 -53 l50 -46 0 -592 c0 -651 0 -646 -60 -680 -35 -20 -37 -28 -9 -43 27 -14 290 -13 335 1 35 12 46 30 19 30 -8 0 -29 13 -46 28 -27 24 -32 37 -38 96 -4 38 -4 107 -1 155 6 76 11 94 46 153 21 37 42 67 45 68 5 0 18 -26 68 -145 16 -38 47 -108 68 -155 61 -130 61 -135 13 -180 -22 -20 -40 -40 -40 -43 0 -10 57 -16 192 -20 195 -7 267 13 190 52 -51 26 -73 58 -132 189 -26 59 -76 172 -112 252 -36 80 -80 181 -98 226 l-33 81 70 114 c175 287 261 417 305 460 26 25 45 49 41 52 -10 11 -391 8 -398 -2 -3 -5 15 -26 40 -46 l44 -37 -14 -35 c-8 -20 -37 -72 -64 -117 -27 -44 -83 -141 -126 -213 -43 -73 -84 -133 -92 -133 -10 0 -13 47 -13 242 l0 241 45 44 c25 24 43 48 40 53 -7 11 -368 14 -378 3z" style="fill: rgb(33, 33, 33);"/>
    <path d="M5250 5594 c0 -5 18 -25 40 -45 l40 -37 -2 -620 -3 -620 -24 -26 c-14 -14 -31 -26 -38 -26 -8 0 -13 -8 -11 -17 3 -15 19 -19 98 -24 52 -3 163 -5 245 -4 133 1 156 4 203 25 64 28 115 84 139 154 25 71 25 318 0 391 -18 54 -71 116 -121 142 l-31 16 25 15 c59 38 106 98 123 158 22 77 22 223 1 293 -30 101 -136 185 -264 209 -70 14 -420 26 -420 16z m398 -169 c88 -27 131 -112 119 -241 -11 -116 -60 -166 -169 -172 l-68 -4 0 209 c0 115 3 213 7 216 11 11 56 8 111 -8z m36 -610 c25 -12 43 -32 61 -68 23 -46 25 -62 25 -173 0 -68 -5 -135 -11 -151 -25 -67 -100 -108 -184 -101 l-40 3 -3 245 c-1 134 0 251 3 259 7 18 99 10 149 -14z" style="fill: rgb(33, 33, 33);"/>
    <path d="M6382 5561 c-101 -35 -172 -117 -192 -220 -6 -31 -10 -235 -10 -486 0 -403 1 -437 20 -496 24 -79 66 -132 134 -166 44 -24 63 -27 141 -28 106 0 162 22 225 91 65 70 65 73 65 619 l0 490 -28 57 c-34 70 -88 114 -168 139 -75 24 -119 24 -187 0z m168 -159 c21 -22 30 -42 35 -83 3 -30 5 -250 3 -489 -3 -487 -2 -476 -75 -506 -46 -20 -86 -10 -118 28 l-25 30 0 484 c0 412 2 489 15 514 20 38 41 49 93 50 35 0 49 -6 72 -28z" style="fill: rgb(33, 33, 33);"/>
    <path d="M7223 5571 c-82 -21 -159 -88 -196 -171 -19 -43 -20 -67 -21 -535 l-1 -490 28 -57 c54 -110 127 -152 262 -152 104 0 159 20 213 75 81 82 84 103 83 637 0 504 -2 525 -65 598 -51 60 -125 96 -205 100 -36 2 -80 -1 -98 -5z m152 -165 c13 -13 26 -39 30 -57 3 -19 5 -245 3 -502 l-3 -469 -33 -29 c-43 -38 -107 -41 -149 -5 l-28 24 0 505 0 505 24 26 c20 22 33 26 78 26 43 0 59 -5 78 -24z" style="fill: rgb(33, 33, 33);"/>
    <path d="M2700 4656 c0 -27 -62 -361 -69 -375 -6 -10 -25 -31 -43 -46 -29 -25 -31 -28 -15 -40 21 -15 216 -27 280 -16 51 9 83 29 58 38 -7 3 -27 18 -44 33 l-30 27 14 124 c8 68 13 135 12 148 -3 30 -37 67 -85 92 -34 17 -78 26 -78 15z" style="fill: rgb(33, 33, 33);"/>
    <line style="stroke-width: 100px; fill: rgb(33, 33, 33); stroke: rgb(33, 33, 33);" x1="1595.62" y1="3971.657" x2="8583.647" y2="3971.273"/>
    <line style="stroke-width: 100px; fill: rgb(33, 33, 33); stroke: rgb(33, 33, 33);" x1="1637.954" y1="5828.828" x2="3367.101" y2="5822.708"/>
    <line style="stroke-width: 100px; fill: rgb(33, 33, 33); stroke: rgb(33, 33, 33);" x1="6832.098" y1="5825.876" x2="8584.625" y2="5819.756"/>
  </g>
</svg>